<svg fill="#ffffff" width="96" height="96" xmlns="http://www.w3.org/2000/svg" xmlns:xlink="http://www.w3.org/1999/xlink" xml:space="preserve" overflow="hidden"><g transform="translate(-629 -5)"><path d="M693 35C693 43.8366 685.837 51 677 51 668.163 51 661 43.8366 661 35 661 26.1634 668.163 19 677 19 685.837 19 693 26.1634 693 35Z"/><path d="M709 87 709 71C709 68.6 707.8 66.2 705.8 64.6 701.4 61 695.8 58.6 690.2 57 686.2 55.8 681.8 55 677 55 672.6 55 668.2 55.8 663.8 57 658.2 58.6 652.6 61.4 648.2 64.6 646.2 66.2 645 68.6 645 71L645 87 709 87Z"/></g></svg>