<svg width="96" height="96" xmlns="http://www.w3.org/2000/svg" xmlns:xlink="http://www.w3.org/1999/xlink" xml:space="preserve" overflow="hidden"><g transform="translate(-1160 -12)"><path d="M1198.03 28 1203.03 28 1203.03 32 1198.03 32Z"/><path d="M1186.03 52 1191.03 52 1191.03 56 1186.03 56Z"/><path d="M1174.03 76 1179.03 76 1179.03 80 1174.03 80Z"/><path d="M1198.03 76 1203.03 76 1203.03 80 1198.03 80Z"/><path d="M1222.03 76 1227.03 76 1227.03 80 1222.03 80Z"/><path d="M1210.03 52 1215.03 52 1215.03 56 1210.03 56Z"/><path d="M1231.03 57.949C1230.36 57.9145 1229.7 57.8448 1229.03 57.74L1229.03 71 1207.03 71 1207.03 49 1215.91 49C1215.51 48.3557 1215.15 47.6878 1214.82 47L1195.03 47 1195.03 25 1217.03 25 1217.03 27.381C1217.64 26.5971 1218.31 25.8616 1219.03 25.181L1219.03 23 1193.03 23 1193.03 47 1181.03 47 1181.03 71 1169.03 71 1169.03 97 1243.03 97 1243.03 71 1231.03 71ZM1193.03 95 1171.03 95 1171.03 73 1193.03 73ZM1193.03 71 1183.03 71 1183.03 49 1205.03 49 1205.03 71 1193.03 71ZM1217.03 95 1195.03 95 1195.03 73 1217.03 73ZM1241.03 73 1241.03 95 1219.03 95 1219.03 73 1241.03 73Z"/><path d="M1232.03 23C1223.2 23 1216.03 30.1634 1216.03 39 1216.03 47.8366 1223.2 55 1232.03 55 1240.87 55 1248.03 47.8366 1248.03 39 1248.02 30.1678 1240.87 23.0105 1232.03 23ZM1232.03 53C1224.3 53 1218.03 46.732 1218.03 39 1218.03 31.268 1224.3 25 1232.03 25 1239.77 25 1246.03 31.268 1246.03 39 1246.03 46.7283 1239.76 52.9912 1232.03 53Z"/><path d="M1229.03 42.586 1223.74 37.293 1222.33 38.707 1229.03 45.414 1240.74 33.707 1239.33 32.293 1229.03 42.586Z"/></g></svg>