<svg width="96" height="96" xmlns="http://www.w3.org/2000/svg" xmlns:xlink="http://www.w3.org/1999/xlink" xml:space="preserve" overflow="hidden"><g transform="translate(-542 -3)"><path d="M590 63 613 63 613 46.882C608.164 46.336 603.757 43.8529 600.784 40L590 40ZM593 43 597 43 597 47 593 47Z"/><path d="M597 29C596.997 25.467 598.041 22.0124 600 19.072L600 14 577 14 577 37 598.9 37C597.653 34.5175 597.002 31.7782 597 29ZM584 21 580 21 580 17 584 17Z"/><path d="M587 40 564 40 564 63 587 63ZM571 47 567 47 567 43 571 43Z"/><path d="M603 89 625 89 625 66 603 66ZM606 69 610 69 610 73 606 73Z"/><path d="M577 89 600 89 600 66 577 66ZM580 69 584 69 584 73 580 73Z"/><path d="M551 89 574 89 574 66 551 66ZM554 69 558 69 558 73 554 73Z"/><path d="M615 14C606.716 14 600 20.7157 600 29 600 37.2843 606.716 44 615 44 623.284 44 630 37.2843 630 29 630 20.7157 623.284 14 615 14ZM612 36.121 604.939 29.061 607.061 26.939 612 31.879 621.939 21.939 624.061 24.061Z"/></g></svg>