<svg width="1000" height="700" xmlns="http://www.w3.org/2000/svg">
  <!-- Hintergrund -->
  <rect width="100%" height="100%" fill="#ffffff" />

  <!-- Bereich: Gekühlte Waren fill="#ADD8E6"-->
  <rect x="10" y="10" width="980" height="160" fill="#fff" stroke="#000" id="kalt"/>
  <!-- <text x="460" y="40" font-family="Arial" font-size="16" fill="#000" text-anchor="middle">Kühl</text> -->
  
  <!-- Bereich: Giftige Waren fill="#FF6347"-->
  <rect x="10" y="180" width="980" height="160" fill="#fff" stroke="#000" id="gift"/>
  <!-- <text x="460" y="220" font-family="Arial" font-size="16" fill="#000" text-anchor="middle">Giftig</text> -->
  
  <!-- Bereich: Explosionsgeschützt fill="#FFD700"-->
  <rect x="10" y="350" width="980" height="160" fill="#fff" stroke="#000" id="explosiv"/>
  <!-- <text x="460" y="400" font-family="Arial" font-size="16" fill="#000" text-anchor="middle">Explosiv</text> -->
  
  <!-- Bereich: Betäubungsmittel fill="#98FB98"-->
  <rect x="10" y="520" width="980" height="160" fill="#fff" stroke="#000" id="btm"/>
  <!-- <text x="460" y="580" font-family="Arial" font-size="16" fill="#000" text-anchor="middle">Betäubungsmittel</text> -->
  
  <!-- Lagerplätze für Gekühlte Waren -->
  <text x="60" y="60" font-family="Arial" font-size="12" fill="#000">Lagerplatz-ID: K1.1</text>
  <rect x="60" y="70" width="120" height="50" fill="#FFF" stroke="#000" />
  
  <text x="200" y="60" font-family="Arial" font-size="12" fill="#000">Lagerplatz-ID: K2.1</text>
  <rect x="200" y="70" width="120" height="50" fill="#FFF" stroke="#000" />
  
  <text x="340" y="60" font-family="Arial" font-size="12" fill="#000">Lagerplatz-ID: K3.1</text>
  <rect x="340" y="70" width="120" height="50" fill="#FFF" stroke="#000" />
  
  <text x="480" y="60" font-family="Arial" font-size="12" fill="#000">Lagerplatz-ID: K4.1</text>
  <rect x="480" y="70" width="120" height="50" fill="#FFF" stroke="#000" />
  
  <text x="620" y="60" font-family="Arial" font-size="12" fill="#000">Lagerplatz-ID: K5.1</text>
  <rect x="620" y="70" width="120" height="50" fill="#FFF" stroke="#000" />
  
  <text x="760" y="60" font-family="Arial" font-size="12" fill="#000">Lagerplatz-ID: K6.1</text>
  <rect x="760" y="70" width="120" height="50" fill="#FFF" stroke="#000" />
  
  <!-- Lagerplätze für Giftige Waren -->
  <text x="60" y="230" font-family="Arial" font-size="12" fill="#000">Lagerplatz-ID: G1.1</text>
  <rect x="60" y="240" width="120" height="50" fill="#FFF" stroke="#000" />
  
  <text x="200" y="230" font-family="Arial" font-size="12" fill="#000">Lagerplatz-ID: G2.1</text>
  <rect x="200" y="240" width="120" height="50" fill="#FFF" stroke="#000" />
  
  <text x="340" y="230" font-family="Arial" font-size="12" fill="#000">Lagerplatz-ID: G3.1</text>
  <rect x="340" y="240" width="120" height="50" fill="#FFF" stroke="#000" />
  
  <text x="480" y="230" font-family="Arial" font-size="12" fill="#000">Lagerplatz-ID: G4.1</text>
  <rect x="480" y="240" width="120" height="50" fill="#FFF" stroke="#000" />
  
  <text x="620" y="230" font-family="Arial" font-size="12" fill="#000">Lagerplatz-ID: G5.1</text>
  <rect x="620" y="240" width="120" height="50" fill="#FFF" stroke="#000" />
  
  <!-- Lagerplätze für Explosionsgeschützt -->
  <text x="60" y="400" font-family="Arial" font-size="12" fill="#000">Lagerplatz-ID: EX1.1</text>
  <rect x="60" y="410" width="120" height="50" fill="#FFF" stroke="#000" />
  
  <text x="200" y="400" font-family="Arial" font-size="12" fill="#000">Lagerplatz-ID: EX2.1</text>
  <rect x="200" y="410" width="120" height="50" fill="#FFF" stroke="#000" />
  
  <text x="340" y="400" font-family="Arial" font-size="12" fill="#000">Lagerplatz-ID: EX3.1</text>
  <rect x="340" y="410" width="120" height="50" fill="#FFF" stroke="#000" />
  
  <text x="480" y="400" font-family="Arial" font-size="12" fill="#000">Lagerplatz-ID: EX4.1</text>
  <rect x="480" y="410" width="120" height="50" fill="#FFF" stroke="#000" />
  
  <text x="620" y="400" font-family="Arial" font-size="12" fill="#000">Lagerplatz-ID: EX5.1</text>
  <rect x="620" y="410" width="120" height="50" fill="#FFF" stroke="#000" />
  
  <!-- Lagerplätze für Betäubungsmittel -->
  <text x="60" y="570" font-family="Arial" font-size="12" fill="#000">Lagerplatz-ID: BTM1.1</text>
  <rect x="60" y="580" width="120" height="50" fill="#FFF" stroke="#000" />
  
  <text x="200" y="570" font-family="Arial" font-size="12" fill="#000">Lagerplatz-ID: BTM2.1</text>
  <rect x="200" y="580" width="120" height="50" fill="#FFF" stroke="#000" />
  
  <text x="340" y="570" font-family="Arial" font-size="12" fill="#000">Lagerplatz-ID: BTM3.1</text>
  <rect x="340" y="580" width="120" height="50" fill="#FFF" stroke="#000" />
  
  <text x="480" y="570" font-family="Arial" font-size="12" fill="#000">Lagerplatz-ID: BTM4.1</text>
  <rect x="480" y="580" width="120" height="50" fill="#FFF" stroke="#000" />
  
  <text x="620" y="570" font-family="Arial" font-size="12" fill="#000">Lagerplatz-ID: BTM5.1</text>
  <rect x="620" y="580" width="120" height="50" fill="#FFF" stroke="#000" />
  
  <text x="760" y="570" font-family="Arial" font-size="12" fill="#000">Lagerplatz-ID: BTM6.1</text>
  <rect x="760" y="580" width="120" height="50" fill="#FFF" stroke="#000" />
  <style>
  svg
  {
    display: block;
    margin: auto;
    position: absolute;
    top: 50%;
    left: 50%;
    transform: translate(-50%, -50%);
  }
  </style>
</svg>
