<svg width="1000" height="725" xmlns="http://www.w3.org/2000/svg">
  <!-- Hintergrund -->
  <rect width="100%" height="100%" fill="#ffffff" />

  <!-- Bereich: Gekühlte Waren fill="#ADD8E6"-->
  <rect x="20" y="20" width="960" height="160" fill="#fff" stroke="#000" id="kalt"/>
  <!-- <text x="460" y="40" font-family="Arial" font-size="16" fill="#000" text-anchor="middle">Kühl</text> -->
  
  <!-- Bereich: Giftige Waren fill="#FF6347"-->
  <rect x="20" y="200" width="960" height="160" fill="#fff" stroke="#000" id="gift"/>
  <!-- <text x="460" y="220" font-family="Arial" font-size="16" fill="#000" text-anchor="middle">Giftig</text> -->
  
  <!-- Bereich: Explosionsgeschützt fill="#FFD700"-->
  <rect x="20" y="380" width="960" height="160" fill="#fff" stroke="#000" id="explosiv"/>
  <!-- <text x="460" y="400" font-family="Arial" font-size="16" fill="#000" text-anchor="middle">Explosiv</text> -->
  
  <!-- Bereich: Betäubungsmittel fill="#98FB98"-->
  <rect x="20" y="560" width="960" height="160" fill="#fff" stroke="#000" id="btm"/>
  <!-- <text x="460" y="580" font-family="Arial" font-size="16" fill="#000" text-anchor="middle">Betäubungsmittel</text> -->
  
  <!-- Lagerplätze für Gekühlte Waren -->
  <text x="60" y="80" font-family="Arial" font-size="12" fill="#000">Lagerplatz-ID: K1.2</text>
  <rect x="60" y="90" width="120" height="50" fill="#FFF" stroke="#000" />
  
  <text x="200" y="80" font-family="Arial" font-size="12" fill="#000">Lagerplatz-ID: K2.2</text>
  <rect x="200" y="90" width="120" height="50" fill="#FFF" stroke="#000" />
  
  <text x="340" y="80" font-family="Arial" font-size="12" fill="#000">Lagerplatz-ID: K3.2</text>
  <rect x="340" y="90" width="120" height="50" fill="#FFF" stroke="#000" />
  
  <text x="480" y="80" font-family="Arial" font-size="12" fill="#000">Lagerplatz-ID: K4.2</text>
  <rect x="480" y="90" width="120" height="50" fill="#FFF" stroke="#000" />
  
  <text x="620" y="80" font-family="Arial" font-size="12" fill="#000">Lagerplatz-ID: K5.2</text>
  <rect x="620" y="90" width="120" height="50" fill="#FFF" stroke="#000" />
  
  <!-- Lagerplätze für Giftige Waren -->
  <text x="60" y="260" font-family="Arial" font-size="12" fill="#000">Lagerplatz-ID: G1.2</text>
  <rect x="60" y="270" width="120" height="50" fill="#FFF" stroke="#000" />
  
  <text x="200" y="260" font-family="Arial" font-size="12" fill="#000">Lagerplatz-ID: G2.2</text>
  <rect x="200" y="270" width="120" height="50" fill="#FFF" stroke="#000" />
  
  <text x="340" y="260" font-family="Arial" font-size="12" fill="#000">Lagerplatz-ID: G3.2</text>
  <rect x="340" y="270" width="120" height="50" fill="#FFF" stroke="#000" />
  
  <text x="480" y="260" font-family="Arial" font-size="12" fill="#000">Lagerplatz-ID: G4.2</text>
  <rect x="480" y="270" width="120" height="50" fill="#FFF" stroke="#000" />
  
  <text x="620" y="260" font-family="Arial" font-size="12" fill="#000">Lagerplatz-ID: G5.2</text>
  <rect x="620" y="270" width="120" height="50" fill="#FFF" stroke="#000" />
  
  <text x="760" y="260" font-family="Arial" font-size="12" fill="#000">Lagerplatz-ID: T6.2</text>
  <rect x="760" y="270" width="120" height="50" fill="#FFF" stroke="#000" />
  
  <!-- Lagerplätze für Explosionsgeschützt -->
  <text x="60" y="440" font-family="Arial" font-size="12" fill="#000">Lagerplatz-ID: EX1.2</text>
  <rect x="60" y="450" width="120" height="50" fill="#FFF" stroke="#000" />
  
  <text x="200" y="440" font-family="Arial" font-size="12" fill="#000">Lagerplatz-ID: EX2.2</text>
  <rect x="200" y="450" width="120" height="50" fill="#FFF" stroke="#000" />
  
  <text x="340" y="440" font-family="Arial" font-size="12" fill="#000">Lagerplatz-ID: EX3.2</text>
  <rect x="340" y="450" width="120" height="50" fill="#FFF" stroke="#000" />
  
  <text x="480" y="440" font-family="Arial" font-size="12" fill="#000">Lagerplatz-ID: EX4.2</text>
  <rect x="480" y="450" width="120" height="50" fill="#FFF" stroke="#000" />
  
  <text x="620" y="440" font-family="Arial" font-size="12" fill="#000">Lagerplatz-ID: EX5.2</text>
  <rect x="620" y="450" width="120" height="50" fill="#FFF" stroke="#000" />
  
  <text x="760" y="440" font-family="Arial" font-size="12" fill="#000">Lagerplatz-ID: EX6.2</text>
  <rect x="760" y="450" width="120" height="50" fill="#FFF" stroke="#000" />
  
  <!-- Lagerplätze für Betäubungsmittel -->
  <text x="60" y="620" font-family="Arial" font-size="12" fill="#000">Lagerplatz-ID: BTM1.2</text>
  <rect x="60" y="630" width="120" height="50" fill="#FFF" stroke="#000" />
  
  <text x="200" y="620" font-family="Arial" font-size="12" fill="#000">Lagerplatz-ID: BTM2.2</text>
  <rect x="200" y="630" width="120" height="50" fill="#FFF" stroke="#000" />
  
  <text x="340" y="620" font-family="Arial" font-size="12" fill="#000">Lagerplatz-ID: BTM3.2</text>
  <rect x="340" y="630" width="120" height="50" fill="#FFF" stroke="#000" />
  
  <text x="480" y="620" font-family="Arial" font-size="12" fill="#000">Lagerplatz-ID: BTM4.2</text>
  <rect x="480" y="630" width="120" height="50" fill="#FFF" stroke="#000" />
  
  <text x="620" y="620" font-family="Arial" font-size="12" fill="#000">Lagerplatz-ID: BTM5.2</text>
  <rect x="620" y="630" width="120" height="50" fill="#FFF" stroke="#000" />
  <style>
  svg
  {
    display: block;
    margin: auto;
    position: absolute;
    top: 50%;
    left: 50%;
    transform: translate(-50%, -50%);
  }
  </style>
</svg>
