<svg width="96" height="96" xmlns="http://www.w3.org/2000/svg" xmlns:xlink="http://www.w3.org/1999/xlink" xml:space="preserve" overflow="hidden"><g transform="translate(-733 -10)"><path d="M794 96 816 96 816 73 794 73ZM797 76 801 76 801 80 797 80Z"/><path d="M781 70 804 70 804 53.882C799.164 53.336 794.757 50.8529 791.784 47L781 47ZM784 50 788 50 788 54 784 54Z"/><path d="M778 47 755 47 755 70 778 70ZM762 54 758 54 758 50 762 50Z"/><path d="M742 96 765 96 765 73 742 73ZM745 76 749 76 749 80 745 80Z"/><path d="M768 96 791 96 791 73 768 73ZM771 76 775 76 775 80 771 80Z"/><path d="M788 36C787.997 32.467 789.041 29.0124 791 26.072L791 21 768 21 768 44 789.9 44C788.653 41.5175 788.002 38.7782 788 36ZM775 28 771 28 771 24 775 24Z"/><path d="M806 21C797.716 21 791 27.7157 791 36 791 44.2843 797.716 51 806 51 814.284 51 821 44.2843 821 36 821 27.7157 814.284 21 806 21ZM814.061 41.939 811.939 44.061 806 38.121 800.061 44.061 797.939 41.939 803.879 36 797.939 30.061 800.061 27.939 806 33.879 811.939 27.939 814.061 30.061 808.121 36Z"/></g></svg>