<svg width="96" height="96" xmlns="http://www.w3.org/2000/svg" xmlns:xlink="http://www.w3.org/1999/xlink" xml:space="preserve" overflow="hidden"><g transform="translate(-592 -12)"><path d="M630 28 635 28 635 32 630 32Z"/><path d="M618 52 623 52 623 56 618 56Z"/><path d="M606 76 611 76 611 80 606 80Z"/><path d="M630 76 635 76 635 80 630 80Z"/><path d="M654 76 659 76 659 80 654 80Z"/><path d="M642 52 647 52 647 56 642 56Z"/><path d="M663 57.949C662.33 57.9146 661.662 57.8448 661 57.74L661 71 639 71 639 49 647.875 49C647.474 48.3555 647.112 47.6877 646.79 47L627 47 627 25 649 25 649 27.381C649.608 26.5966 650.277 25.8611 651 25.181L651 23 625 23 625 47 613 47 613 71 601 71 601 97 675 97 675 71 663 71ZM625 95 603 95 603 73 625 73ZM625 71 615 71 615 49 637 49 637 71 625 71ZM649 95 627 95 627 73 649 73ZM673 73 673 95 651 95 651 73 673 73Z"/><path d="M664 23C655.163 23 648 30.1634 648 39 648 47.8366 655.163 55 664 55 672.837 55 680 47.8366 680 39 679.99 30.1676 672.832 23.0099 664 23ZM664 53C656.268 53 650 46.732 650 39 650 31.268 656.268 25 664 25 671.732 25 678 31.268 678 39 677.992 46.7286 671.729 52.9917 664 53Z"/><path d="M670.293 31.293 664 37.586 657.707 31.293 656.293 32.707 662.586 39 656.293 45.293 657.707 46.707 664 40.414 670.293 46.707 671.707 45.293 665.414 39 671.707 32.707 670.293 31.293Z"/></g></svg>