<svg width="96" height="96" xmlns="http://www.w3.org/2000/svg" xmlns:xlink="http://www.w3.org/1999/xlink" xml:space="preserve" overflow="hidden"><g transform="translate(-191 0)"><path d="M238.991 21.626 213.193 37.116 238.996 52.662 264.794 37.172 238.991 21.626Z"/><path d="M225.668 69.996 210.797 60.983 210.797 72.064 237.479 88.237 237.479 59.269 225.668 69.996Z"/><path d="M252.3 70 240.5 59.276 240.5 88.237 267.182 72.064 267.182 60.977ZM249.967 78.093 243.942 81.536 243.942 75.507 249.967 72.064Z"/><path d="M237.473 19.039 225.309 7.99 198.459 24.264 210.507 35.23 237.473 19.039Z"/><path d="M267.432 35.259 279.512 24.264 252.661 7.99 240.502 19.034 267.432 35.259Z"/><path d="M210.527 39.012 198.459 49.997 225.309 66.27 237.456 55.237 210.527 39.012Z"/><path d="M240.523 55.245 252.661 66.27 279.512 49.997 267.489 39.053 240.523 55.245Z"/></g></svg>