<svg width="96" height="96" xmlns="http://www.w3.org/2000/svg" xmlns:xlink="http://www.w3.org/1999/xlink" xml:space="preserve" overflow="hidden"><g transform="translate(-32 -158)"><path d="M84 238.9 91.714 234.272 91.714 227.372 84 232ZM86 233.129 89.714 230.9 89.714 233.139 86 235.367Z"/><path d="M93.541 165.891 81.47 176.855 80 175.964 78.511 176.864 66.429 165.891 37.8 183.246 49.862 194.229 49.429 194.492 49.429 196.433 37.8 207.022 49.433 214.072 49.433 228.772 80 247.3 110.571 228.775 110.571 214.054 122.171 207.022 110.571 196.46 110.571 194.492 110.12 194.218 122.175 183.246ZM41.122 183.569 66.189 168.376 76.727 177.947 55.964 190.531 51.63 193.131ZM41.122 206.699 51.647 197.119 76.727 212.319 66.189 221.891ZM79 244.358 51.429 227.648 51.429 215.284 66.429 224.376 78.512 213.4 79 213.7ZM80 211.86 52.231 195.132 57.088 192.189 79.993 178.436 107.779 195.176 107.552 195.312 107.532 195.278 99.214 200.319ZM108.571 227.648 81 244.358 81 213.7 81.47 213.415 93.541 224.376 108.571 215.267ZM118.849 206.7 93.781 221.891 83.255 212.33 100.191 202.065 108.366 197.157ZM108.336 193.137 83.255 177.937 93.781 168.377 118.849 183.569Z"/></g></svg>