<svg width="96" height="96" xmlns="http://www.w3.org/2000/svg" xmlns:xlink="http://www.w3.org/1999/xlink" xml:space="preserve" overflow="hidden"><g transform="translate(-957 -12)"><path d="M1030 71 1030 47 1018 47 1018 23 992 23 992 47 980 47 980 71 968 71 968 97 1042 97 1042 71ZM1028 49 1028 71 1006 71 1006 49 1028 49ZM994 25 1016 25 1016 47 994 47ZM982 49 1004 49 1004 71 982 71ZM992 95 970 95 970 73 992 73ZM1016 95 994 95 994 73 1016 73ZM1040 95 1018 95 1018 73 1040 73Z"/><path d="M997 28 1002 28 1002 32 997 32Z"/><path d="M985 52 990 52 990 56 985 56Z"/><path d="M973 76 978 76 978 80 973 80Z"/><path d="M997 76 1002 76 1002 80 997 80Z"/><path d="M1021 76 1026 76 1026 80 1021 80Z"/><path d="M1009 52 1014 52 1014 56 1009 56Z"/></g></svg>