<svg width="96" height="96" xmlns="http://www.w3.org/2000/svg" xmlns:xlink="http://www.w3.org/1999/xlink" xml:space="preserve" overflow="hidden"><g transform="translate(-1120 -129)"><path d="M1131 192 1131 215 1154 215 1154 192ZM1138 199 1134 199 1134 195 1138 195Z"/><path d="M1157 192 1157 215 1180 215 1180 192ZM1164 199 1160 199 1160 195 1164 195Z"/><path d="M1144 166 1144 189 1167 189 1167 166ZM1151 173 1147 173 1147 169 1151 169Z"/><path d="M1170 166 1170 189 1193 189 1193 166ZM1177 173 1173 173 1173 169 1177 169Z"/><path d="M1157 140 1157 163 1180 163 1180 140ZM1164 147 1160 147 1160 143 1164 143Z"/><path d="M1183 192 1183 215 1205 215 1205 192ZM1190 199 1186 199 1186 195 1190 195Z"/></g></svg>