<svg width="96" height="96" xmlns="http://www.w3.org/2000/svg" xmlns:xlink="http://www.w3.org/1999/xlink" xml:space="preserve" overflow="hidden"><g transform="translate(-829 -12)"><path d="M878 20.661 844 41.267 844 79.394 878 100 912 79.394 912 41.267ZM909.071 41.831 894.75 50.51 863.679 31.679 878 23ZM878 60.661 846.929 41.831 861.75 32.848 892.821 51.679ZM846 43.605 877 62.394 877 97.055 846 78.267ZM879 97.055 879 62.394 910 43.605 910 78.267Z"/><path d="M883.971 64.115 883 64.7 883 73.365 886.029 71.548 891.029 68.548 892 67.963 892 59.3 888.971 61.117ZM890 66.831 885 69.831 885 65.831 890 62.831Z"/></g></svg>