<svg fill="#ffffff" width="96" height="96" xmlns="http://www.w3.org/2000/svg" xmlns:xlink="http://www.w3.org/1999/xlink" xml:space="preserve" overflow="hidden"><g transform="translate(-1133 -225)"><path d="M1191 244.438C1190.73 244.571 1190.47 244.714 1190.21 244.866 1185.31 247.758 1182.73 253.4 1183.75 259L1191 259Z"/><path d="M1184.66 262C1187.66 268.867 1195.66 272 1202.53 268.998 1203.02 268.783 1203.5 268.539 1203.96 268.268 1203.97 268.26 1203.99 268.251 1204 268.244L1204 262Z"/><path d="M1185.15 236.243C1185.29 236.157 1185.45 236.083 1185.59 236L1168 236 1168 259 1173.65 259C1172.7 249.819 1177.19 240.928 1185.15 236.243ZM1171 239 1175 239 1175 243 1171 243Z"/><path d="M1204 279.663 1203.71 279.17C1201.56 279.8 1199.34 280.119 1197.1 280.116 1191.12 280.104 1185.37 277.833 1181 273.76L1181 285 1204 285Z"/><path d="M1211.39 296.4 1206.46 288 1194 288 1194 311 1216 311 1216 299.956C1214.06 299.411 1212.41 298.137 1211.39 296.4ZM1201 295 1197 295 1197 291 1201 291Z"/><path d="M1168 311 1191 311 1191 288 1168 288ZM1171 291 1175 291 1175 295 1171 295Z"/><path d="M1142 311 1165 311 1165 288 1142 288ZM1145 291 1149 291 1149 295 1145 295Z"/><path d="M1178 270.372C1177.56 269.772 1177.15 269.154 1176.77 268.508 1175.57 266.482 1174.69 264.288 1174.15 262L1155 262 1155 285 1178 285ZM1162 269 1158 269 1158 265 1162 265Z"/><path d="M1214.82 246.146C1209.08 236.345 1196.48 233.056 1186.68 238.802 1176.87 244.547 1173.59 257.15 1179.33 266.951 1184.54 275.846 1195.54 279.507 1205.04 275.515L1207.57 279.815C1206.89 281.26 1206.97 282.948 1207.78 284.324L1213.98 294.874C1215.36 297.165 1218.34 297.901 1220.63 296.517 1222.88 295.157 1223.64 292.249 1222.33 289.965L1216.13 279.415C1215.32 278.039 1213.89 277.15 1212.3 277.038L1209.77 272.738C1217.87 266.382 1220.02 255.027 1214.82 246.146ZM1182.8 264.962C1178.16 257.072 1180.8 246.916 1188.69 242.28 1196.58 237.643 1206.74 240.281 1211.37 248.172 1216.01 256.062 1213.37 266.217 1205.48 270.854 1205.48 270.854 1205.48 270.854 1205.48 270.854 1197.59 275.479 1187.44 272.843 1182.8 264.962Z"/></g></svg>