<svg fill="#ffffff" width="96" height="96" xmlns="http://www.w3.org/2000/svg" xmlns:xlink="http://www.w3.org/1999/xlink" xml:space="preserve" overflow="hidden"><g transform="translate(-1064 -12)"><path d="M1102 28 1107 28 1107 32 1102 32Z"/><path d="M1090 52 1095 52 1095 56 1090 56Z"/><path d="M1078 76 1083 76 1083 80 1078 80Z"/><path d="M1102 76 1107 76 1107 80 1102 80Z"/><path d="M1126 76 1131 76 1131 80 1126 80Z"/><path d="M1123 32.073C1122.29 32.4946 1121.62 32.9754 1121 33.51L1121 47 1116.16 47C1116.28 47.6775 1116.44 48.3459 1116.66 49L1133 49 1133 58.759C1133.68 58.6375 1134.35 58.4677 1135 58.251L1135 47 1123 47Z"/><path d="M1145 84.705 1145 95 1123 95 1123 73 1138.01 73 1137.6 72.317C1137.36 71.9002 1137.16 71.4588 1137 71L1135 71 1135 66.533C1134.34 66.669 1133.68 66.772 1133 66.849L1133 71 1111 71 1111 55.821C1110.18 54.4236 1109.52 52.9416 1109.02 51.401 1109.01 51.37 1109 51.371 1109 51.401L1109 71 1087 71 1087 49 1108.39 49C1108.25 48.344 1108.15 47.676 1108.07 47L1099 47 1099 25 1119.23 25C1120.43 24.3066 1121.69 23.7264 1123 23.267L1123 23 1097 23 1097 47 1085 47 1085 71 1073 71 1073 97 1147 97 1147 86.718C1146.2 86.1889 1145.52 85.5042 1145 84.705ZM1097 95 1075 95 1075 73 1097 73ZM1121 95 1099 95 1099 73 1121 73Z"/><path fill="#0078D4" d="M1156.43 77.549 1149.21 65.419C1147.9 63.4798 1145.38 62.767 1143.25 63.731L1141.39 60.616C1150.22 54.5738 1152.48 42.518 1146.44 33.6887 1140.4 24.8593 1128.34 22.5999 1119.51 28.6421 1110.68 34.6843 1108.42 46.7401 1114.47 55.5694 1120.07 63.7605 1130.96 66.3898 1139.69 61.659L1141.53 64.75C1140.77 65.3809 1140.2 66.2028 1139.87 67.13 1139.42 68.3328 1139.54 69.6734 1140.18 70.783L1147.4 82.914C1148.24 84.256 1149.73 85.0501 1151.32 85 1152.35 84.994 1153.37 84.709 1154.26 84.175 1155.41 83.5072 1156.29 82.4534 1156.74 81.2 1157.19 79.9979 1157.07 78.6583 1156.43 77.549ZM1113.02 46.292C1112.03 36.6777 1119.03 28.0823 1128.64 27.0936 1138.25 26.1049 1146.85 33.0973 1147.84 42.7116 1148.83 52.3259 1141.83 60.9213 1132.22 61.91 1131.03 62.0324 1129.83 62.0324 1128.64 61.91 1120.39 61.0544 1113.88 54.5372 1113.02 46.292ZM1154.85 80.546C1154.55 81.3513 1153.98 82.0261 1153.23 82.452 1151.69 83.367 1149.85 83.115 1149.12 81.891L1141.9 69.761C1141.56 69.1566 1141.51 68.4322 1141.76 67.786 1142.06 66.9811 1142.63 66.3066 1143.37 65.881 1143.96 65.5276 1144.62 65.3373 1145.31 65.33 1146.18 65.2858 1147.01 65.7088 1147.49 66.441L1154.71 78.572C1155.05 79.1757 1155.1 79.8998 1154.85 80.546Z"/></g></svg>