<svg width="96" height="96" xmlns="http://www.w3.org/2000/svg" xmlns:xlink="http://www.w3.org/1999/xlink" xml:space="preserve" overflow="hidden"><g transform="translate(-431 -3)"><path d="M479 14 441 29.6 441 89.024 448 89.024 448 39.01 510 39.01 510 89.024 517 89.024 517 29.6ZM515 87.024 512 87.024 512 37.01 446 37.01 446 87.024 443 87.024 443 30.939 479 16.165 515 30.939Z"/><path d="M451 42 507 42 507 44 451 44Z"/><path d="M451 47 507 47 507 49 451 49Z"/><path d="M451 52 507 52 507 54 451 54Z"/><path d="M492 61 479 61 479 74 466 74 466 89 507 89 507 61 492 61ZM481 63 492 63 492 74 481 74ZM479 87 468 87 468 76 479 76ZM492 87 481 87 481 76 492 76ZM505 87 494 87 494 76 505 76ZM505 63 505 74 494 74 494 63Z"/><path d="M483 65 486 65 486 67 483 67Z"/><path d="M496 65 499 65 499 67 496 67Z"/><path d="M483 78 486 78 486 80 483 80Z"/><path d="M470 78 473 78 473 80 470 80Z"/><path d="M496 78 499 78 499 80 496 80Z"/></g></svg>