<svg width="96" height="96" xmlns="http://www.w3.org/2000/svg" xmlns:xlink="http://www.w3.org/1999/xlink" xml:space="preserve" overflow="hidden"><g transform="translate(-335 -1)"><path d="M355 41 411 41 411 45 355 45Z"/><path d="M355 49 411 49 411 53 355 53Z"/><path d="M398 75 398 87 411 87 411 75ZM403 79 400 79 400 77 403 77Z"/><path d="M383 75 383 87 396 87 396 75ZM388 79 385 79 385 77 388 77Z"/><path d="M398 61 398 73 411 73 411 61ZM403 65 400 65 400 63 403 63Z"/><path d="M383 61 383 73 396 73 396 61ZM388 65 385 65 385 63 388 63Z"/><path d="M368 75 368 87 381 87 381 75ZM373 79 370 79 370 77 373 77Z"/><path d="M421 87 421 27.59 383 12 345 27.59 345 87 351 87 351 37 415 37 415 87 421 87Z"/></g></svg>